{
  "asset": {
    "version": "2.0",
    "generator": "ServiceShapeGenerator"
  },
  "scene": 0,
  "scenes": [
    {
      "nodes": [
        0
      ]
    }
  ],
  "nodes": [
    {
      "mesh": 0,
      "name": "service-web"
    }
  ],
  "meshes": [
    {
      "name": "service-web-mesh",
      "primitives": [
        {
          "attributes": {
            "POSITION": 1,
            "NORMAL": 2
          },
          "indices": 0,
          "material": 0
        }
      ]
    }
  ],
  "materials": [
    {
      "name": "service-web-material",
      "doubleSided": true,
      "pbrMetallicRoughness": {
        "baseColorFactor": [
          0.25,
          0.76,
          1,
          1
        ],
        "metallicFactor": 0.05,
        "roughnessFactor": 0.45
      }
    }
  ],
  "buffers": [
    {
      "uri": "service-web.bin",
      "byteLength": 1092
    }
  ],
  "bufferViews": [
    {
      "buffer": 0,
      "byteOffset": 0,
      "byteLength": 84,
      "target": 34963
    },
    {
      "buffer": 0,
      "byteOffset": 84,
      "byteLength": 504,
      "target": 34962
    },
    {
      "buffer": 0,
      "byteOffset": 588,
      "byteLength": 504,
      "target": 34962
    }
  ],
  "accessors": [
    {
      "bufferView": 0,
      "componentType": 5123,
      "count": 42,
      "type": "SCALAR",
      "min": [
        0
      ],
      "max": [
        41
      ]
    },
    {
      "bufferView": 1,
      "componentType": 5126,
      "count": 42,
      "type": "VEC3",
      "min": [
        -1.100000023841858,
        -1.2000000476837158,
        -1
      ],
      "max": [
        1.100000023841858,
        1.2000000476837158,
        1
      ]
    },
    {
      "bufferView": 2,
      "componentType": 5126,
      "count": 42,
      "type": "VEC3",
      "min": [
        -0.7863183617591858,
        -0.6191763281822205,
        -0.8137334585189819
      ],
      "max": [
        0.7874361872673035,
        0.7411264777183533,
        0.8137334585189819
      ]
    }
  ]
}