{
  "asset": {
    "version": "2.0",
    "generator": "ServiceShapeGenerator"
  },
  "scene": 0,
  "scenes": [
    {
      "nodes": [
        0
      ]
    }
  ],
  "nodes": [
    {
      "mesh": 0,
      "name": "service-seo"
    }
  ],
  "meshes": [
    {
      "name": "service-seo-mesh",
      "primitives": [
        {
          "attributes": {
            "POSITION": 1,
            "NORMAL": 2
          },
          "indices": 0,
          "material": 0
        }
      ]
    }
  ],
  "materials": [
    {
      "name": "service-seo-material",
      "doubleSided": true,
      "pbrMetallicRoughness": {
        "baseColorFactor": [
          0.42,
          0.98,
          0.6,
          1
        ],
        "metallicFactor": 0.05,
        "roughnessFactor": 0.45
      }
    }
  ],
  "buffers": [
    {
      "uri": "service-seo.bin",
      "byteLength": 1092
    }
  ],
  "bufferViews": [
    {
      "buffer": 0,
      "byteOffset": 0,
      "byteLength": 84,
      "target": 34963
    },
    {
      "buffer": 0,
      "byteOffset": 84,
      "byteLength": 504,
      "target": 34962
    },
    {
      "buffer": 0,
      "byteOffset": 588,
      "byteLength": 504,
      "target": 34962
    }
  ],
  "accessors": [
    {
      "bufferView": 0,
      "componentType": 5123,
      "count": 42,
      "type": "SCALAR",
      "min": [
        0
      ],
      "max": [
        41
      ]
    },
    {
      "bufferView": 1,
      "componentType": 5126,
      "count": 42,
      "type": "VEC3",
      "min": [
        -1,
        -1.25,
        -1
      ],
      "max": [
        1,
        1.25,
        1
      ]
    },
    {
      "bufferView": 2,
      "componentType": 5126,
      "count": 42,
      "type": "VEC3",
      "min": [
        -0.8402966260910034,
        -0.7307968735694885,
        -0.8402966260910034
      ],
      "max": [
        0.8340253829956055,
        0.5486177206039429,
        0.8402966260910034
      ]
    }
  ]
}