{
  "asset": {
    "version": "2.0",
    "generator": "THREE.GLTFExporter r180"
  },
  "scenes": [
    {
      "name": "Scene",
      "nodes": [
        0
      ]
    }
  ],
  "scene": 0,
  "nodes": [
    {
      "name": "logo3.glb",
      "children": [
        1,
        2,
        3,
        4,
        5,
        6
      ]
    },
    {
      "matrix": [
        -0.29086462589180684,
        -0.05518903353397775,
        -0.9551711964083935,
        0,
        -0.7711009137257037,
        0.6045246461343226,
        0.19988335568841364,
        0,
        0.566393171500188,
        0.7946723511029319,
        -0.21839116272315806,
        0,
        4.076245307922363,
        5.903861999511719,
        4.386850833892822,
        1
      ],
      "name": "Light",
      "extras": {
        "name": "Light"
      },
      "extensions": {
        "KHR_lights_punctual": {
          "light": 0
        }
      }
    },
    {
      "matrix": [
        1,
        0,
        0,
        0,
        0,
        1,
        0,
        0,
        0,
        0,
        1,
        0,
        0,
        0,
        12,
        1
      ],
      "name": "Camera",
      "extras": {
        "name": "Camera"
      },
      "camera": 0
    },
    {
      "matrix": [
        38.7002067565918,
        0,
        0,
        0,
        0,
        -0.000005199715525550704,
        -38.70021195630732,
        0,
        0,
        38.70021195630732,
        -0.000005199715525550704,
        0,
-2.192688226699829,
        -1.5,
        0.08546161651611328,
        1
      ],
      "name": "Curve",
      "extras": {
        "name": "Curve"
      },
      "mesh": 0
    },
    {
      "matrix": [
        38.7002067565918,
        0,
        0,
        0,
        0,
        -0.000005199715525550704,
        -38.70021195630732,
        0,
        0,
        38.70021195630732,
        -0.000005199715525550704,
        0,
     -2.192688226699829,
        -1.5,
        0.08546161651611328,
        1
      ],
      "name": "Curve001",
      "extras": {
        "name": "Curve.001"
      },
      "mesh": 1
    },
    {
      "matrix": [
        38.7002067565918,
        0,
        0,
        0,
        0,
        -0.000005199715525550704,
        -38.70021195630732,
        0,
        0,
        38.70021195630732,
        -0.000005199715525550704,
        0,
  -2.192688226699829,
        -1.5,
        0.08546161651611328,
        1
      ],
      "name": "Curve002",
      "extras": {
        "name": "Curve.002"
      },
      "mesh": 2
    },
    {
      "matrix": [
        38.7002067565918,
        0,
        0,
        0,
        0,
        -0.000005199715525550704,
        -38.70021195630732,
        0,
        0,
        38.70021195630732,
        -0.000005199715525550704,
        0,
    -2.192688226699829,
        -1.5,
        0.08546161651611328,
        1
      ],
      "name": "Curve003",
      "extras": {
        "name": "Curve.003"
      },
      "mesh": 3
    }
  ],
  "extensions": {
    "KHR_lights_punctual": {
      "lights": [
        {
          "name": "Light",
          "color": [
            1,
            1,
            1
          ],
          "intensity": 150,
          "type": "point"
        }
      ]
    }
  },
  "cameras": [
    {
      "type": "perspective",
      "perspective": {
        "aspectRatio": 1.7888386123680242,
        "yfov": 0.39959652046304894,
        "zfar": 100,
        "znear": 0.10000000149011612
      },
      "name": "PerspectiveCamera"
    }
  ],
  "bufferViews": [
    {
      "buffer": 0,
      "byteOffset": 0,
      "byteLength": 52704,
      "target": 34962,
      "byteStride": 12
    },
    {
      "buffer": 0,
      "byteOffset": 52704,
      "byteLength": 52704,
      "target": 34962,
      "byteStride": 12
    },
    {
      "buffer": 0,
      "byteOffset": 105408,
      "byteLength": 35136,
      "target": 34962,
      "byteStride": 8
    },
    {
      "buffer": 0,
      "byteOffset": 140544,
      "byteLength": 44928,
      "target": 34963
    },
    {
      "buffer": 0,
      "byteOffset": 185472,
      "byteLength": 85320,
      "target": 34962,
      "byteStride": 12
    },
    {
      "buffer": 0,
      "byteOffset": 270792,
      "byteLength": 85320,
      "target": 34962,
      "byteStride": 12
    },
    {
      "buffer": 0,
      "byteOffset": 356112,
      "byteLength": 56880,
      "target": 34962,
      "byteStride": 8
    },
    {
      "buffer": 0,
      "byteOffset": 412992,
      "byteLength": 72576,
      "target": 34963
    },
    {
      "buffer": 0,
      "byteOffset": 485568,
      "byteLength": 82020,
      "target": 34962,
      "byteStride": 12
    },
    {
      "buffer": 0,
      "byteOffset": 567588,
      "byteLength": 82020,
      "target": 34962,
      "byteStride": 12
    },
    {
      "buffer": 0,
      "byteOffset": 649608,
      "byteLength": 54680,
      "target": 34962,
      "byteStride": 8
    },
    {
      "buffer": 0,
      "byteOffset": 704288,
      "byteLength": 69096,
      "target": 34963
    },
    {
      "buffer": 0,
      "byteOffset": 773384,
      "byteLength": 68688,
      "target": 34962,
      "byteStride": 12
    },
    {
      "buffer": 0,
      "byteOffset": 842072,
      "byteLength": 68688,
      "target": 34962,
      "byteStride": 12
    },
    {
      "buffer": 0,
      "byteOffset": 910760,
      "byteLength": 45792,
      "target": 34962,
      "byteStride": 8
    },
    {
      "buffer": 0,
      "byteOffset": 956552,
      "byteLength": 58728,
      "target": 34963
    }
  ],
  "buffers": [
    {
      "byteLength": 1015280,
      "uri": "data:application/octet-stream;base64,"
    }
  ],
  "accessors": [
    {
      "bufferView": 0,
      "componentType": 5126,
      "count": 4392,
      "max": [
        0.11568515747785568,
        0.007999999448657036,
        0.11301230639219284
      ],
      "min": [
        0.0050195432268083096,
        -0.007999999448657036,
        0.0019985102117061615
      ],
      "type": "VEC3"
    },
    {
      "bufferView": 1,
      "componentType": 5126,
      "count": 4392,
      "max": [
        0.9969056844711304,
        1,
        0.9969208836555481
      ],
      "min": [
        -0.9969176650047302,
        -1,
        -0.9968910813331604
      ],
      "type": "VEC3"
    },
    {
      "bufferView": 2,
      "componentType": 5126,
      "count": 4392,
      "max": [
        1,
        1
      ],
      "min": [
        0,
        0
      ],
      "type": "VEC2"
    },
    {
      "bufferView": 3,
      "componentType": 5123,
      "count": 22464,
      "max": [
        4391
      ],
      "min": [
        0
      ],
      "type": "SCALAR"
    },
    {
      "bufferView": 4,
      "componentType": 5126,
      "count": 7110,
      "max": [
        0.08450064808130264,
        0.007000000216066837,
        0.046691104769706726
      ],
      "min": [
        0.03526708856225014,
        -0.007000000216066837,
        0.03319767862558365
      ],
      "type": "VEC3"
    },
    {
      "bufferView": 5,
      "componentType": 5126,
      "count": 7110,
      "max": [
        0.9969217777252197,
        1,
        0.9969210624694824
      ],
      "min": [
        -0.9567613005638123,
        -1,
        -0.9969217777252197
      ],
      "type": "VEC3"
    },
    {
      "bufferView": 6,
      "componentType": 5126,
      "count": 7110,
      "max": [
        1,
        1
      ],
      "min": [
        0,
        0
      ],
      "type": "VEC2"
    },
    {
      "bufferView": 7,
      "componentType": 5123,
      "count": 36288,
      "max": [
        7109
      ],
      "min": [
        0
      ],
      "type": "SCALAR"
    },
    {
      "bufferView": 8,
      "componentType": 5126,
      "count": 6835,
      "max": [
        0.08448431640863419,
        0.007000000216066837,
        0.08139781653881073
      ],
      "min": [
        0.03541816771030426,
        -0.007000000216066837,
        0.06786926090717316
      ],
      "type": "VEC3"
    },
    {
      "bufferView": 9,
      "componentType": 5126,
      "count": 6835,
      "max": [
        1,
        1,
        0.9969210624694824
      ],
      "min": [
        -1,
        -1,
        -0.9969208836555481
      ],
      "type": "VEC3"
    },
    {
      "bufferView": 10,
      "componentType": 5126,
      "count": 6835,
      "max": [
        1,
        1
      ],
      "min": [
        0,
        0
      ],
      "type": "VEC2"
    },
    {
      "bufferView": 11,
      "componentType": 5123,
      "count": 34548,
      "max": [
        6834
      ],
      "min": [
        0
      ],
      "type": "SCALAR"
    },
    {
      "bufferView": 12,
      "componentType": 5126,
      "count": 5724,
      "max": [
        0.07634657621383667,
        0.007000000216066837,
        0.06390337646007538
      ],
      "min": [
        0.03578632324934006,
        -0.007000000216066837,
        0.05094229802489281
      ],
      "type": "VEC3"
    },
    {
      "bufferView": 13,
      "componentType": 5126,
      "count": 5724,
      "max": [
        0.996914267539978,
        1,
        0.9969208836555481
      ],
      "min": [
        -0.9969109296798706,
        -1,
        -0.9969184994697571
      ],
      "type": "VEC3"
    },
    {
      "bufferView": 14,
      "componentType": 5126,
      "count": 5724,
      "max": [
        1,
        1
      ],
      "min": [
        0,
        0
      ],
      "type": "VEC2"
    },
    {
      "bufferView": 15,
      "componentType": 5123,
      "count": 29364,
      "max": [
        5723
      ],
      "min": [
        0
      ],
      "type": "SCALAR"
    }
  ],
  "materials": [
    {
      "pbrMetallicRoughness": {
        "baseColorFactor": [
          0.0006070539820939302,
          0.6038273572921753,
          0.6038273572921753,
          1
        ],
        "metallicFactor": 0.5,
        "roughnessFactor": 0.20000000298023224
      },
      "doubleSided": true,
      "name": "SVGMat.001"
    },
    {
      "pbrMetallicRoughness": {
        "baseColorFactor": [
          0.0003035269910469651,
          0.577580451965332,
          0.5840784311294556,
          1
        ],
        "metallicFactor": 0.5,
        "roughnessFactor": 0.20000000298023224
      },
      "doubleSided": true,
      "name": "SVGMat.002"
    },
    {
      "pbrMetallicRoughness": {
        "baseColorFactor": [
          0.0009105809731408954,
          0.5840784311294556,
          0.5906188488006592,
          1
        ],
        "metallicFactor": 0.5,
        "roughnessFactor": 0.20000000298023224
      },
      "doubleSided": true,
      "name": "SVGMat.003"
    },
    {
      "pbrMetallicRoughness": {
        "baseColorFactor": [
          0.002428215928375721,
          0.577580451965332,
          0.5840784311294556,
          1
        ],
        "metallicFactor": 0.5,
        "roughnessFactor": 0.20000000298023224
      },
      "doubleSided": true,
      "name": "SVGMat.004"
    }
  ],
  "meshes": [
    {
      "primitives": [
        {
          "mode": 4,
          "attributes": {
            "POSITION": 0,
            "NORMAL": 1,
            "TEXCOORD_0": 2
          },
          "indices": 3,
          "material": 0
        }
      ]
    },
    {
      "primitives": [
        {
          "mode": 4,
          "attributes": {
            "POSITION": 4,
            "NORMAL": 5,
            "TEXCOORD_0": 6
          },
          "indices": 7,
          "material": 1
        }
      ]
    },
    {
      "primitives": [
        {
          "mode": 4,
          "attributes": {
            "POSITION": 8,
            "NORMAL": 9,
            "TEXCOORD_0": 10
          },
          "indices": 11,
          "material": 2
        }
      ]
    },
    {
      "primitives": [
        {
          "mode": 4,
          "attributes": {
            "POSITION": 12,
            "NORMAL": 13,
            "TEXCOORD_0": 14
          },
          "indices": 15,
          "material": 3
        }
      ]
    }
  ],
  "extensionsUsed": [
    "KHR_lights_punctual"
  ]
}
