{
  "asset": {
    "version": "2.0",
    "generator": "THREE.GLTFExporter r181"
  },
  "scenes": [
    {
      "name": "Scene",
      "nodes": [
        0
      ]
    }
  ],
  "scene": 0,
  "nodes": [
    {
      "name": "instagram.glb",
      "children": [
        1,
        2,
        3,
        4,
        5
      ]
    },
    {
      "matrix": [
        -0.2908646775532549,
        -0.05518904522473682,
        -0.9551712124420509,
        0,
        -0.7711009254164625,
        0.6045246338968102,
        0.19988339509297365,
        0,
        0.5663931554665306,
        0.7946723905074929,
        -0.21839119484224845,
        0,
        4.011298179626465,
        6.221515655517578,
        2.0478057861328125,
        1
      ],
      "name": "Light",
      "extras": {
        "name": "Light"
      },
      "extensions": {
        "KHR_lights_punctual": {
          "light": 0
        }
      }
    },
    {
      "matrix": [
        1,
        0,
        0,
        0,
        0,
        1,
        0,
        0,
        0,
        0,
        1,
        0,
        0,
        0,
        12,
        1
      ],
      "name": "Camera",
      "extras": {
        "name": "Camera"
      },
      "camera": 0
    },
    {
      "matrix": [
        300.795166015625,
        0,
        0,
        0,
        0,
        -0.00004041449449535985,
        300.79520643011955,
        0,
        0,
        -300.79520643011955,
        -0.00004041449449535985,
        0,
        -1.189625859260559,
        -1.1782140731811523,
        0,
        1
      ],
      "name": "Curve",
      "extras": {
        "name": "Curve"
      },
      "mesh": 0
    },
    {
      "matrix": [
        300.795166015625,
        0,
        0,
        0,
        0,
        -0.00004041449449535985,
        300.79520643011955,
        0,
        0,
        -300.79520643011955,
        -0.00004041449449535985,
        0,
        -1.189625859260559,
        -1.1782140731811523,
        0,
        1
      ],
      "name": "Curve001",
      "extras": {
        "name": "Curve.001"
      },
      "mesh": 1
    },
    {
      "matrix": [
        300.795166015625,
        0,
        0,
        0,
        0,
        -0.00004041449449535985,
        300.79520643011955,
        0,
        0,
        -300.79520643011955,
        -0.00004041449449535985,
        0,
        -1.189625859260559,
        -1.1782140731811523,
        0,
        1
      ],
      "name": "Curve002",
      "extras": {
        "name": "Curve.002"
      },
      "mesh": 2
    }
  ],
  "extensions": {
    "KHR_lights_punctual": {
      "lights": [
        {
          "name": "Light",
          "color": [
            1,
            1,
            1
          ],
          "intensity": 100,
          "type": "point"
        }
      ]
    }
  },
  "cameras": [
    {
      "type": "perspective",
      "perspective": {
        "aspectRatio": 1.7888386123680242,
        "yfov": 0.39959652046304894,
        "zfar": 100,
        "znear": 0.10000000149011612
      },
      "name": "PerspectiveCamera"
    }
  ],
  "bufferViews": [
    {
      "buffer": 0,
      "byteOffset": 0,
      "byteLength": 34560,
      "target": 34962,
      "byteStride": 12
    },
    {
      "buffer": 0,
      "byteOffset": 34560,
      "byteLength": 34560,
      "target": 34962,
      "byteStride": 12
    },
    {
      "buffer": 0,
      "byteOffset": 69120,
      "byteLength": 23040,
      "target": 34962,
      "byteStride": 8
    },
    {
      "buffer": 0,
      "byteOffset": 92160,
      "byteLength": 29376,
      "target": 34963
    },
    {
      "buffer": 0,
      "byteOffset": 121536,
      "byteLength": 8208,
      "target": 34962,
      "byteStride": 12
    },
    {
      "buffer": 0,
      "byteOffset": 129744,
      "byteLength": 8208,
      "target": 34962,
      "byteStride": 12
    },
    {
      "buffer": 0,
      "byteOffset": 137952,
      "byteLength": 5472,
      "target": 34962,
      "byteStride": 8
    },
    {
      "buffer": 0,
      "byteOffset": 143424,
      "byteLength": 6888,
      "target": 34963
    },
    {
      "buffer": 0,
      "byteOffset": 150312,
      "byteLength": 22464,
      "target": 34962,
      "byteStride": 12
    },
    {
      "buffer": 0,
      "byteOffset": 172776,
      "byteLength": 22464,
      "target": 34962,
      "byteStride": 12
    },
    {
      "buffer": 0,
      "byteOffset": 195240,
      "byteLength": 14976,
      "target": 34962,
      "byteStride": 8
    },
    {
      "buffer": 0,
      "byteOffset": 210216,
      "byteLength": 19008,
      "target": 34963
    }
  ],
  "buffers": [
    {
      "byteLength": 229224,
      "uri": "data:application/octet-stream;base64,"
    }
  ],
  "accessors": [
    {
      "bufferView": 0,
      "componentType": 5126,
      "count": 2880,
      "max": [
        0.00800287164747715,
        0.0006000000284984708,
        0.0000948158121900633
      ],
      "min": [
        -0.00009378004324389622,
        -0.0006000000284984708,
        -0.008027925156056881
      ],
      "type": "VEC3"
    },
    {
      "bufferView": 1,
      "componentType": 5126,
      "count": 2880,
      "max": [
        0.9969213604927063,
        1,
        0.9969157576560974
      ],
      "min": [
        -0.9969218969345093,
        -1,
        -0.9969200491905212
      ],
      "type": "VEC3"
    },
    {
      "bufferView": 2,
      "componentType": 5126,
      "count": 2880,
      "max": [
        1,
        1
      ],
      "min": [
        0,
        0
      ],
      "type": "VEC2"
    },
    {
      "bufferView": 3,
      "componentType": 5123,
      "count": 14688,
      "max": [
        2879
      ],
      "min": [
        0
      ],
      "type": "SCALAR"
    },
    {
      "bufferView": 4,
      "componentType": 5126,
      "count": 684,
      "max": [
        0.006696668919175863,
        0.0006000000284984708,
        -0.005497956182807684
      ],
      "min": [
        0.005499385762959719,
        -0.0006000000284984708,
        -0.006666597444564104
      ],
      "type": "VEC3"
    },
    {
      "bufferView": 5,
      "componentType": 5126,
      "count": 684,
      "max": [
        0.9965289831161499,
        1,
        0.994131326675415
      ],
      "min": [
        -0.9956305027008057,
        -1,
        -0.996170699596405
      ],
      "type": "VEC3"
    },
    {
      "bufferView": 6,
      "componentType": 5126,
      "count": 684,
      "max": [
        1,
        1
      ],
      "min": [
        0,
        0
      ],
      "type": "VEC2"
    },
    {
      "bufferView": 7,
      "componentType": 5123,
      "count": 3444,
      "max": [
        683
      ],
      "min": [
        0
      ],
      "type": "SCALAR"
    },
    {
      "bufferView": 8,
      "componentType": 5126,
      "count": 1872,
      "max": [
        0.006098810583353043,
        0.0006000000284984708,
        -0.0018972457619383931
      ],
      "min": [
        0.0019073868170380592,
        -0.0006000000284984708,
        -0.006072633434087038
      ],
      "type": "VEC3"
    },
    {
      "bufferView": 9,
      "componentType": 5126,
      "count": 1872,
      "max": [
        0.9969140291213989,
        1,
        0.9968637824058533
      ],
      "min": [
        -0.9965699315071106,
        -1,
        -0.9967525005340576
      ],
      "type": "VEC3"
    },
    {
      "bufferView": 10,
      "componentType": 5126,
      "count": 1872,
      "max": [
        1,
        1
      ],
      "min": [
        0,
        0
      ],
      "type": "VEC2"
    },
    {
      "bufferView": 11,
      "componentType": 5123,
      "count": 9504,
      "max": [
        1871
      ],
      "min": [
        0
      ],
      "type": "SCALAR"
    }
  ],
  "materials": [
    {
      "pbrMetallicRoughness": {
        "baseColorFactor": [
          0.982250550332711,
          0.20863687013464577,
          0.035601314869097636,
          1
        ],
        "metallicFactor": 0,
        "roughnessFactor": 0.4000000059604645
      },
      "doubleSided": true,
      "name": "SVGMat.002"
    },
    {
      "pbrMetallicRoughness": {
        "baseColorFactor": [
          0.05126945836711539,
          0.10946171076915331,
          0.7912979403281551,
          1
        ],
        "metallicFactor": 0,
        "roughnessFactor": 0.4000000059604645
      },
      "doubleSided": true,
      "name": "SVGMat"
    },
    {
      "pbrMetallicRoughness": {
        "baseColorFactor": [
          0.7529422167708612,
          0.02955683443236377,
          0.1499597898006365,
          1
        ],
        "metallicFactor": 0,
        "roughnessFactor": 0.4000000059604645
      },
      "doubleSided": true,
      "name": "SVGMat.001"
    }
  ],
  "meshes": [
    {
      "primitives": [
        {
          "mode": 4,
          "attributes": {
            "POSITION": 0,
            "NORMAL": 1,
            "TEXCOORD_0": 2
          },
          "indices": 3,
          "material": 0
        }
      ]
    },
    {
      "primitives": [
        {
          "mode": 4,
          "attributes": {
            "POSITION": 4,
            "NORMAL": 5,
            "TEXCOORD_0": 6
          },
          "indices": 7,
          "material": 1
        }
      ]
    },
    {
      "primitives": [
        {
          "mode": 4,
          "attributes": {
            "POSITION": 8,
            "NORMAL": 9,
            "TEXCOORD_0": 10
          },
          "indices": 11,
          "material": 2
        }
      ]
    }
  ],
  "extensionsUsed": [
    "KHR_lights_punctual"
  ]
}