{
  "asset": {
    "version": "2.0",
    "generator": "THREE.GLTFExporter r180"
  },
  "scenes": [
    {
      "name": "Scene",
      "nodes": [
        0
      ]
    }
  ],
  "scene": 0,
  "nodes": [
    {
      "name": "whatsapp3.glb",
      "children": [
        1,
        2,
        3,
        4
      ]
    },
    {
      "matrix": [
        -0.29086462589180684,
        -0.05518903353397775,
        -0.9551711964083935,
        0,
        -0.7711009137257037,
        0.6045246461343226,
        0.19988335568841364,
        0,
        0.566393171500188,
        0.7946723511029319,
        -0.21839116272315806,
        0,
        4.076245307922363,
        5.903861999511719,
        2.2822165489196777,
        1
      ],
      "name": "Light",
      "extras": {
        "name": "Light"
      },
      "extensions": {
        "KHR_lights_punctual": {
          "light": 0
        }
      }
    },
    {
      "matrix": [
        1,
        0,
        0,
        0,
        0,
        1,
        0,
        0,
        0,
        0,
        1,
        0,
        0,
        0,
        9,
        1
      ],
      "name": "Camera",
      "extras": {
        "name": "Camera"
      },
      "camera": 0
    },
    {
      "matrix": [
        300,
        0,
        0,
        0,
        0,
        -0.00004030765694551519,
        300.00004030765695,
        0,
        0,
        -300.00004030765695,
        -0.00004030765694551519,
        0,
        -1.1262800693511963,
        -1.084899663925171,
        0,
        1
      ],
      "name": "Curve",
      "extras": {
        "name": "Curve"
      },
      "mesh": 0
    },
    {
      "matrix": [
        300,
        0,
        0,
        0,
        0,
        -0.00004030765694551519,
        300.00004030765695,
        0,
        0,
        -300.00004030765695,
        -0.00004030765694551519,
        0,
        -1.1262800693511963,
        -1.084899663925171,
        0,
        1
      ],
      "name": "Curve001",
      "extras": {
        "name": "Curve.001"
      },
      "mesh": 1
    }
  ],
  "extensions": {
    "KHR_lights_punctual": {
      "lights": [
        {
          "name": "Light",
          "color": [
            1,
            1,
            1
          ],
          "intensity": 75,
          "type": "point"
        }
      ]
    }
  },
  "cameras": [
    {
      "type": "perspective",
      "perspective": {
        "aspectRatio": 1.7888386123680242,
        "yfov": 0.39959652046304894,
        "zfar": 100,
        "znear": 0.10000000149011612
      },
      "name": "PerspectiveCamera"
    }
  ],
  "bufferViews": [
    {
      "buffer": 0,
      "byteOffset": 0,
      "byteLength": 36576,
      "target": 34962,
      "byteStride": 12
    },
    {
      "buffer": 0,
      "byteOffset": 36576,
      "byteLength": 36576,
      "target": 34962,
      "byteStride": 12
    },
    {
      "buffer": 0,
      "byteOffset": 73152,
      "byteLength": 24384,
      "target": 34962,
      "byteStride": 8
    },
    {
      "buffer": 0,
      "byteOffset": 97536,
      "byteLength": 31104,
      "target": 34963
    },
    {
      "buffer": 0,
      "byteOffset": 128640,
      "byteLength": 18456,
      "target": 34962,
      "byteStride": 12
    },
    {
      "buffer": 0,
      "byteOffset": 147096,
      "byteLength": 18456,
      "target": 34962,
      "byteStride": 12
    },
    {
      "buffer": 0,
      "byteOffset": 165552,
      "byteLength": 12304,
      "target": 34962,
      "byteStride": 8
    },
    {
      "buffer": 0,
      "byteOffset": 177856,
      "byteLength": 15672,
      "target": 34963
    }
  ],
  "buffers": [
    {
      "byteLength": 193528,
      "uri": "data:application/octet-stream;base64,"
    }
  ],
  "accessors": [
    {
      "bufferView": 0,
      "componentType": 5126,
      "count": 3048,
      "max": [
        0.007841541431844234,
        0.0007000000332482159,
        -0.00008531678759027272
      ],
      "min": [
        0.00013884721556678414,
        -0.0007000000332482159,
        -0.00787659827619791
      ],
      "type": "VEC3"
    },
    {
      "bufferView": 1,
      "componentType": 5126,
      "count": 3048,
      "max": [
        0.9968482255935669,
        1,
        0.9969038367271423
      ],
      "min": [
        -0.9966602921485901,
        -1,
        -0.9968883991241455
      ],
      "type": "VEC3"
    },
    {
      "bufferView": 2,
      "componentType": 5126,
      "count": 3048,
      "max": [
        1,
        1
      ],
      "min": [
        0,
        0
      ],
      "type": "VEC2"
    },
    {
      "bufferView": 3,
      "componentType": 5123,
      "count": 15552,
      "max": [
        3047
      ],
      "min": [
        0
      ],
      "type": "SCALAR"
    },
    {
      "bufferView": 4,
      "componentType": 5126,
      "count": 1538,
      "max": [
        0.0060544670559465885,
        0.0007000000332482159,
        -0.002075167838484049
      ],
      "min": [
        0.0019279613625258207,
        -0.0007000000332482159,
        -0.005919823423027992
      ],
      "type": "VEC3"
    },
    {
      "bufferView": 5,
      "componentType": 5126,
      "count": 1538,
      "max": [
        0.9964139461517334,
        1,
        0.9949102401733398
      ],
      "min": [
        -0.9966705441474915,
        -1,
        -0.9947656989097595
      ],
      "type": "VEC3"
    },
    {
      "bufferView": 6,
      "componentType": 5126,
      "count": 1538,
      "max": [
        1,
        1
      ],
      "min": [
        0,
        0
      ],
      "type": "VEC2"
    },
    {
      "bufferView": 7,
      "componentType": 5123,
      "count": 7836,
      "max": [
        1537
      ],
      "min": [
        0
      ],
      "type": "SCALAR"
    }
  ],
  "materials": [
    {
      "pbrMetallicRoughness": {
        "baseColorFactor": [
          0.01849932037293911,
          0.6514065861701965,
          0.13286849856376648,
          1
        ],
        "metallicFactor": 0.25,
        "roughnessFactor": 0.20000000298023224
      },
      "doubleSided": true,
      "name": "SVGMat"
    }
  ],
  "meshes": [
    {
      "primitives": [
        {
          "mode": 4,
          "attributes": {
            "POSITION": 0,
            "NORMAL": 1,
            "TEXCOORD_0": 2
          },
          "indices": 3,
          "material": 0
        }
      ]
    },
    {
      "primitives": [
        {
          "mode": 4,
          "attributes": {
            "POSITION": 4,
            "NORMAL": 5,
            "TEXCOORD_0": 6
          },
          "indices": 7,
          "material": 0
        }
      ]
    }
  ],
  "extensionsUsed": [
    "KHR_lights_punctual"
  ]
}